# AST/ASF file generated using VICON BodyLanguage
# -----------------------------------------------
:version 1.10
:name VICON
:units
  mass 1.0
  length 0.45
  angle deg
:documentation
   .ast/.asf automatically generated from VICON data using
   VICON BodyBuilder and BodyLanguage model FoxedUp or BRILLIANT.MOD
:root
   order TX TY TZ RX RY RZ
   axis XYZ
   position 0 0 0  
   orientation 0 0 0 
:bonedata
  begin
     id 1 
     name lhipjoint
     direction 0.621563 -0.714088 0.322083 
     length 2.21591 
     axis 0 0 0  XYZ
  end
  begin
     id 2 
     name lfemur
     direction 0.34202 -0.939693 0  
     length 6.84027  
     axis 0 0 20  XYZ
    dof rx ry rz
    limits (-160.0 20.0)
           (-70.0 70.0)
           (-60.0 70.0)
  end
  begin
     id 3 
     name ltibia
     direction 0.34202 -0.939693 0   
     length 6.74005   
     axis 0 0 20   XYZ
    dof rx
    limits (-10.0 170.0)
  end
  begin
     id 4 
     name lfoot
     direction 0.0348332 -0.0960526 0.994767   
     length 1.54672   
     axis -90 7.62852e-016 20   XYZ
    dof rx rz
    limits (-45.0 90.0)
           (-70.0 20.0)
  end
  begin
     id 5 
     name ltoes
     direction 1.53538e-011 -4.22089e-011 1   
     length 0.792077   
     axis -90 7.62852e-016 20   XYZ
    dof rx
    limits (-90.0 20.0)
  end
  begin
     id 6 
     name rhipjoint
     direction -0.648389 -0.693984 0.313015   
     length 2.2801  
     axis 0 0 0  XYZ 
  end
  begin
     id 7 
     name rfemur
     direction -0.34202 -0.939693 0   
     length 6.62341   
     axis 0 0 -20   XYZ
    dof rx ry rz
    limits (-160.0 20.0)
           (-70.0 70.0)
           (-70.0 60.0)
  end
  begin
     id 8 
     name rtibia
     direction -0.34202 -0.939693 0   
     length 6.63811   
     axis 0 0 -20   XYZ
    dof rx
    limits (-10.0 170.0)
 end
 begin
     id 9 
     name rfoot
     direction -0.0578404 -0.158915 0.985596   
     length 1.64992  
     axis -90 -7.62852e-016 -20   XYZ
    dof rx rz
    limits (-45.0 90.0)
           (-20.0 70.0)
  end
  begin
     id 10 
     name rtoes
     direction -1.53571e-011 -4.21911e-011 1   
     length 0.839909   
     axis -90 -7.62852e-016 -20   XYZ
    dof rx
    limits (-90.0 20.0)
  end
  begin
     id 11 
     name lowerback
     direction 0.000554472 0.999997 -0.00226605   
     length 1.81878   
     axis 0 0 0   XYZ
    dof rx ry rz
    limits (-20.0 45.0)
           (-30.0 30.0)
           (-30.0 30.0)
  end
  begin
     id 12 
     name upperback
     direction 0.00177008 0.999761 -0.021771   
     length 1.81977   
     axis 0 0 0   XYZ
    dof rx ry rz
    limits (-20.0 45.0)
           (-30.0 30.0)
           (-30.0 30.0)
  end
  begin
     id 13 
     name thorax
     direction 0.00134147 0.999799 -0.0200243   
     length 1.81422   
     axis 0 0 0   XYZ
    dof rx ry rz
    limits (-20.0 45.0)
           (-30.0 30.0)
           (-30.0 30.0)
  end
  begin
     id 14 
     name lowerneck
     direction -0.0819714 0.987506 0.134583   
     length 1.68295   
     axis 0 0 0   XYZ
    dof rx ry rz
    limits (-20.0 45.0)
           (-30.0 30.0)
           (-30.0 30.0)
  end
  begin
     id 15 
     name upperneck
     direction 0.0867129 0.969666 -0.228538   
     length 1.71188   
     axis 0 0 0   XYZ
    dof rx ry rz
    limits (-20.0 45.0)
           (-30.0 30.0)
           (-30.0 30.0)
  end
  begin
     id 16
     name head
     direction 0.023699 0.995021 -0.0968101  
     length 1.73365  
     axis 0 0 0   XYZ
    dof rx ry rz
    limits (-20.0 45.0)
           (-30.0 30.0)
           (-30.0 30.0)
  end
  begin
     id 17 
     name lclavicle
     direction 0.912847 0.398248 0.090054  
     length 3.56518  
     axis 0 0 0   XYZ
    dof ry rz
    limits (-20.0 10.0)
           (0.0 20.0)
  end
  begin
     id 18 
     name lhumerus
     direction 1 -4.48961e-011 -4.05442e-028   
     length 4.05444   
     axis 180 -30 -90   XYZ
    dof rx ry rz
    limits (-60.0 90.0)
           (-90.0 90.0)
           (-90.0 90.0)
  end
  begin
     id 19
     name lradius
     direction 1 -4.4897e-011 1.54979e-027   
     length 3.21205   
     axis 180 -30 -90   XYZ
    dof rx
    limits (-10.0 170.0)
  end
  begin
     id 20
     name lwrist
     direction 1 -4.48979e-011 1.55564e-027   
     length 1.60602   
     axis -1.61768e-015 90 90   XYZ
    dof ry
    limits (-180.0 0.0)
 end
  begin
     id 21 
     name lhand
     direction 1 -4.48877e-011 3.11128e-027   
     length 0.707407   
     axis -1.98526e-015 90 90   XYZ
    dof rx rz
    limits (-90.0 90.0)
           (-45.0 45.0)
  end
  begin
     id 22 
     name lfingers
     direction 1 -4.49016e-011 6.22255e-027   
     length 0.57033   
     axis -3.97052e-015 90 90   XYZ
    dof rx
    limits (0.0 90.0)
  end
  begin
     id 23
     name lthumb
     direction 0.707107 -6.35011e-011 0.707107   
     length 0.818883   
     axis -90 45 2.85299e-015   XYZ
    dof rx rz
    limits (-45.0 45.0)
           (-45.0 45.0)
  end
  begin
     id 24 
     name rclavicle
     direction -0.930415 0.353791 0.0957082   
     length 3.54688  
     axis 0 0 0   XYZ 
    dof ry rz
    limits (-10.0 20.0)
           (-20.0 0.0)
  end
  begin
     id 25 
     name rhumerus
     direction -1 -4.48952e-011 -8.4136e-018  
     length 3.74048   
     axis 180 30 90   XYZ
    dof rx ry rz
    limits (-90.0 60.0)
           (-90.0 90.0)
           (-90.0 90.0)
  end
  begin
     id 26 
     name rradius
     direction -1 -4.48964e-011 1.66692e-027   
     length 3.1603   
     axis 180 30 90   XYZ
    dof rx
    limits (-10.0 170.0)
  end
  begin
     id 27 
     name rwrist
     direction -1 -4.49008e-011 1.55564e-027   
     length 1.58015   
     axis -1.61768e-015 -90 -90   XYZ
    dof ry
    limits (-180.0 0.0)
  end
  begin
     id 28
     name rhand
     direction -1 -4.48922e-011 3.11128e-027   
     length 0.717028   
     axis -1.98526e-015 -90 -90   XYZ
    dof rx rz
    limits (-90.0 90.0)
           (-45.0 45.0)
  end
  begin
     id 29
     name rfingers
     direction -1 -4.49002e-011 6.22255e-027   
     length 0.578086   
     axis -3.97052e-015 -90 -90   XYZ
    dof rx
    limits (0.0 90.0)
  end
  begin
     id 30
     name rthumb
     direction -0.707107 -6.34899e-011 0.707107   
     length 0.83002   
     axis -90 -45 -2.85299e-015   XYZ
    dof rx rz
    limits (-45.0 45.0)
           (-45.0 45.0)
  end
:hierarchy
  begin
    root lhipjoint rhipjoint lowerback
    lhipjoint lfemur
    lfemur ltibia
    ltibia lfoot
    lfoot ltoes
    rhipjoint rfemur
    rfemur rtibia
    rtibia rfoot
    rfoot rtoes
    lowerback upperback
    upperback thorax
    thorax lowerneck lclavicle rclavicle
    lowerneck upperneck
    upperneck head
    lclavicle lhumerus
    lhumerus lradius
    lradius lwrist
    lwrist lhand lthumb
    lhand lfingers
    rclavicle rhumerus
    rhumerus rradius
    rradius rwrist
    rwrist rhand rthumb
    rhand rfingers
  end

#!OML:ASF G:\acrobat\cartwheel_test\acrobat_wednesday\Session 1\acrobatwednesday.ASF
:FULLY-SPECIFIED
:DEGREES
50
root 18.7284 16.4517 0.241557 72.4134 86.2528 64.1341
lowerback -7.67864 -0.753346 -2.06253
upperback 0.0158522 -0.791817 -0.34814
thorax 4.3482 -0.427715 0.709158
lowerneck -13.4454 -16.2241 -15.4923
upperneck 19.0628 -21.7316 11.526
head 11.3946 -9.95688 3.05016
rclavicle 5.64051e-015 -1.5704e-014
rhumerus -35.03 -23.2973 -72.5627
rradius 22.7408
rwrist 38.1383
rhand -20.8263 8.3083
rfingers 7.12502
rthumb 5.54202 -21.5992
lclavicle 5.64051e-015 -1.5704e-014
lhumerus -26.8011 9.01351 79.3617
lradius 17.9412
lwrist 11.367
lhand -21.5026 -14.0611
lfingers 7.12502
lthumb 4.88906 15.8625
rfemur 2.98086 18.4197 20.4828
rtibia -2.68802
rfoot -31.635 19.4318
rtoes 5.54772
lfemur -2.06871 -4.68859 -25.3238
ltibia 3.64061
lfoot 15.858 -8.90448
ltoes -35.0482
51
root 18.7302 16.4514 0.244135 73.5408 86.2662 65.2695
lowerback -7.65909 -0.768301 -2.09735
upperback -4.52156e-005 -0.809092 -0.349837
thorax 4.32165 -0.436589 0.725356
lowerneck -13.4005 -16.2171 -15.5369
upperneck 19.0129 -21.7339 11.6099
head 11.3852 -9.95554 3.08799
rclavicle -1.0138e-014 5.96354e-015
rhumerus -34.9976 -23.1721 -72.6268
rradius 22.7252
rwrist 38.0046
rhand -20.8082 8.18424
rfingers 7.12502
rthumb 5.55957 -21.7228
lclavicle -1.0138e-014 5.96354e-015
lhumerus -26.8423 8.59869 79.5271
lradius 17.998
lwrist 11.5373
lhand -21.6101 -14.0591
lfingers 7.12502
lthumb 4.78529 15.8669
rfemur 2.9851 18.451 20.495
rtibia -2.63349
rfoot -31.7532 19.4228
rtoes 5.73373
lfemur -2.06204 -4.69593 -25.3202
ltibia 3.6554
lfoot 15.8409 -8.84642
ltoes -35.0047
52
root 18.7325 16.4525 0.246891 74.5501 86.3037 66.3474
lowerback -7.58406 -0.779065 -2.1065
upperback 0.000966646 -0.82462 -0.353123
thorax 4.28105 -0.444198 0.726229
lowerneck -13.3739 -16.2061 -15.528
upperneck 18.9862 -21.7265 11.6322
head 11.3712 -9.95137 3.0985
rclavicle 8.44835e-016 4.17448e-015
rhumerus -34.9934 -23.0374 -72.7121
rradius 22.8031
rwrist 37.8752
rhand -20.7377 8.14654
rfingers 7.12502
rthumb 5.6276 -21.7587
lclavicle 8.44835e-016 4.17448e-015
lhumerus -26.8796 8.18018 79.6821
lradius 18.0645
lwrist 11.7858
lhand -21.7108 -14.0311
lfingers 7.12502
lthumb 4.688 15.897
rfemur 3.12357 18.5997 20.5887
rtibia -2.67581
rfoot -31.9976 19.4667
rtoes 5.96845
lfemur -1.99336 -4.66673 -25.2854
ltibia 3.69217
lfoot 15.7782 -8.76162
ltoes -35.1238
53
root 18.7354 16.4543 0.249259 75.3856 86.3421 67.2334
lowerback -7.54865 -0.785811 -2.10262
upperback 0.00633855 -0.834865 -0.355062
thorax 4.26694 -0.449159 0.72128
lowerneck -13.3631 -16.1951 -15.5168
upperneck 18.9523 -21.7143 11.6453
head 11.3551 -9.94543 3.10551
rclavicle -1.14053e-014 -8.54774e-015
rhumerus -34.9416 -22.9358 -72.7955
rradius 22.907
rwrist 37.7646
rhand -20.5543 8.09326
rfingers 7.12502
rthumb 5.80466 -21.8072
lclavicle -1.14053e-014 -8.54774e-015
lhumerus -26.8908 7.95303 79.7791
lradius 18.0683
lwrist 11.8554
lhand -21.6996 -13.9693
lfingers 7.12502
lthumb 4.69887 15.9586
rfemur 3.13814 18.3687 20.6099
rtibia -2.58275
rfoot -31.6928 19.6061
rtoes 5.91938
lfemur -1.91463 -4.68532 -25.2544
ltibia 3.67276
lfoot 15.7432 -8.73487
ltoes -35.2796
54
root 18.7371 16.4555 0.251372 76.1371 86.4257 67.9801
lowerback -7.56147 -0.790373 -2.04372
upperback -0.00274141 -0.84645 -0.342876
thorax 4.2643 -0.453709 0.699448
lowerneck -13.3108 -16.169 -15.5385
upperneck 18.8689 -21.6884 11.7189
head 11.3234 -9.93271 3.14405
rclavicle -2.48481e-016 1.78906e-015
rhumerus -34.819 -22.7863 -72.9065
rradius 22.9303
rwrist 37.5412
rhand -20.2659 7.80944
rfingers 7.12502
rthumb 6.08311 -22.0832
lclavicle -2.48481e-016 1.78906e-015
lhumerus -26.8897 7.8713 79.838
lradius 18.0353
lwrist 11.7838
lhand -21.6592 -13.7396
lfingers 7.12502
lthumb 4.73781 16.1874
rfemur 2.95131 17.747 20.599
rtibia -2.2646
rfoot -30.8289 19.792
rtoes 5.39349
lfemur -1.91116 -4.69589 -25.1582
ltibia 3.62973
lfoot 15.6902 -8.7045
ltoes -35.3468
55
root 18.7388 16.456 0.252181 76.8942 86.4672 68.7485
lowerback -7.56413 -0.789821 -1.99634
upperback -1.36009e-005 -0.849356 -0.353031
thorax 4.26783 -0.454106 0.661938
lowerneck -13.2868 -16.1485 -15.5219
upperneck 18.8123 -21.6632 11.734
head 11.2942 -9.92182 3.15515
rclavicle -5.64051e-015 -4.77083e-015
rhumerus -34.7856 -22.6453 -73.0233
rradius 23.0036
rwrist 37.3081
rhand -20.0076 7.41416
rfingers 7.12502
rthumb 6.33246 -22.4712
lclavicle -5.64051e-015 -4.77083e-015
lhumerus -26.8961 7.79123 79.8911
lradius 18.0253
lwrist 11.7842
lhand -21.7461 -13.5075
lfingers 7.12502
lthumb 4.65394 16.4214
rfemur 2.86841 17.3626 20.5865
rtibia -2.07638
rfoot -30.3877 19.775
rtoes 4.93039
lfemur -1.89492 -4.70339 -25.1201
ltibia 3.60426
lfoot 15.6434 -8.65742
ltoes -35.3527
